<svg viewBox="0 0 32 32" fill="none" xmlns="http://www.w3.org/2000/svg">
  <path d="M23.5 14.5V10.5C24.3 10.1 24.9 9.3 24.9 8.4C24.9 7.1 23.8 6 22.5 6C21.2 6 20.1 7.1 20.1 8.4C20.1 9.3 20.7 10.1 21.5 10.5V14.5C20.3 14.8 19.2 15.4 18.3 16.2L10.5 10.4C10.6 10.1 10.6 9.8 10.6 9.5C10.6 7.6 9 6 7.1 6C5.2 6 3.6 7.6 3.6 9.5C3.6 11.4 5.2 13 7.1 13C7.8 13 8.5 12.8 9 12.4L16.6 18C15.9 19.1 15.5 20.4 15.5 21.8C15.5 25.5 18.5 28.5 22.2 28.5C25.9 28.5 28.9 25.5 28.9 21.8C28.9 18.3 26.2 15.4 22.8 15C22.8 15 23.5 14.7 23.5 14.5ZM22.2 25.5C20.2 25.5 18.5 23.8 18.5 21.8C18.5 19.8 20.2 18.1 22.2 18.1C24.2 18.1 25.9 19.8 25.9 21.8C25.9 23.8 24.2 25.5 22.2 25.5Z" fill="#FF7A59"/>
</svg>
