<svg viewBox="0 0 32 32" fill="none" xmlns="http://www.w3.org/2000/svg">
  <path d="M22 6L21 5.5C21 5.5 20 5 19 5C18.5 5 18 5.2 17.5 5.5C17.2 5 16.5 4.5 15.5 4.5C14 4.5 12.8 5.8 12.2 7L9 8L9.5 28L22 26L25 7L22 6ZM17 7V7.5C16.2 7.7 15.3 8 14.5 8.2C14.8 7.2 15.5 6.5 16.2 6.3C16.5 6.2 16.8 6.5 17 7ZM15.5 6C15.8 6 16 6.1 16.2 6.2C15.2 6.5 14.3 7.5 14 9L12 9.5C12.5 7.5 13.8 6 15.5 6ZM15 19L14 16C14 16 15 16.5 16 16.5C17.5 16.5 18 15.5 18 14.5C18 12 14.5 12 14.5 9.5C14.5 7.5 16 6 18 6L19 9C19 9 18 8.5 17.5 8.5C16.5 8.5 16 9 16 10C16 12 19.5 12.5 19.5 15C19.5 17.5 17.5 19.5 15 19Z" fill="#96BF48"/>
</svg>
