<svg viewBox="0 0 24 24" fill="none" xmlns="http://www.w3.org/2000/svg">
  <rect x="2" y="2" width="20" height="20" rx="2" fill="#3178C6"/>
  <path d="M6 11H14V13H11V19H9V13H6V11Z" fill="white"/>
  <path d="M14.5 16.5C14.5 17.5 15.5 19 17.5 19C19.5 19 20.5 17.5 20.5 16.5C20.5 14 17 14.5 17 13C17 12.5 17.5 12 18 12C19 12 19.5 13 19.5 13L20.5 12C20.5 12 19.5 11 18 11C16 11 15.5 12.5 15.5 13C15.5 15.5 19 15 19 16.5C19 17 18.5 18 17.5 18C16 18 15.5 17 15.5 16.5" stroke="white" stroke-width="1"/>
</svg>
